<?xml version="1.0" encoding="utf-8"?>
<!-- Generator: Adobe Illustrator 18.1.1, SVG Export Plug-In . SVG Version: 6.00 Build 0)  -->
<svg version="1.1" id="Layer_1" xmlns="http://www.w3.org/2000/svg" xmlns:xlink="http://www.w3.org/1999/xlink" x="0px" y="0px"
	 viewBox="-23 25 24 24" enable-background="new -23 25 24 24" xml:space="preserve">
<path fill="#0D47A1" d="M-11,27c-5.5,0-10,4.5-10,10s4.5,10,10,10s10-4.5,10-10S-5.5,27-11,27z M-10,41c0,0.6-0.4,1-1,1s-1-0.4-1-1
	v-4c0-0.6,0.4-1,1-1s1,0.4,1,1V41z M-11,34c-0.6,0-1-0.4-1-1s0.4-1,1-1h0c0.6,0,1,0.4,1,1S-10.4,34-11,34z"/>
</svg>
